<svg xmlns="http://www.w3.org/2000/svg" viewBox="0 0 499 500"><defs><style>.a{fill:#fff;}.b{fill:#0f0f0f;}</style></defs><title>Asset 1</title><rect class="a" width="150" height="499" rx="18.45"/><rect class="a" x="175" y="1" width="150" height="499" rx="18.45"/><rect class="a" x="349" y="1" width="150" height="499" rx="18.45"/><path class="b" d="M112,1H212a0,0,0,0,1,0,0V282a16,16,0,0,1-16,16H128a16,16,0,0,1-16-16V1A0,0,0,0,1,112,1Z"/><path class="b" d="M288,1H388a0,0,0,0,1,0,0V282a16,16,0,0,1-16,16H304a16,16,0,0,1-16-16V1A0,0,0,0,1,288,1Z"/></svg>