<svg xmlns="http://www.w3.org/2000/svg" viewBox="0 0 400 500"><defs><style>.a{fill:#fff;}</style></defs><title>microphone</title><path class="a" d="M200,0h0A100,100,0,0,0,100,100v99A100,100,0,0,0,200,299h0A100,100,0,0,0,300,199V100A100,100,0,0,0,200,0Zm50,199a50,50,0,0,1-100,0V100a50,50,0,0,1,100,0Z"/><path class="a" d="M400,199a25,25,0,0,0-50,0h0c0,.33,0,.67,0,1a150,150,0,0,1-300,0c0-.33,0-.67,0-1h0a25,25,0,0,0-50,0c0,.11,0,.22,0,.33s0,.45,0,.67C0,302.33,76.86,386.7,176,398.56V450H126a25,25,0,0,0-25,25h0a25,25,0,0,0,25,25H276a25,25,0,0,0,25-25h0a25,25,0,0,0-25-25H226V398.32C324.17,385.57,400,301.64,400,200c0-.22,0-.44,0-.67S400,199.11,400,199Z"/></svg>