<svg xmlns="http://www.w3.org/2000/svg" viewBox="0 0 500 500"><defs><style>.a{fill:#fff;}</style></defs><title>mixing_2</title><path class="a" d="M483.2,0H16.8A16.8,16.8,0,0,0,0,16.8V483.2A16.8,16.8,0,0,0,16.8,500H483.2A16.8,16.8,0,0,0,500,483.2V16.8A16.8,16.8,0,0,0,483.2,0ZM450,439.08A10.92,10.92,0,0,1,439.08,450H60.92A10.92,10.92,0,0,1,50,439.08V60.92A10.92,10.92,0,0,1,60.92,50H439.08A10.92,10.92,0,0,1,450,60.92Z"/><rect class="a" x="85" y="296" width="80" height="28" rx="14"/><path class="a" d="M150,261V113.09c0-7.41-6.91-13.42-15.42-13.42H115.42c-8.51,0-15.42,6-15.42,13.42V261Z"/><path class="a" d="M100,359v30.57c0,5.58,6.91,10.1,15.42,10.1h19.16c8.51,0,15.42-4.52,15.42-10.1V359Z"/><path class="a" d="M225,207V385.51c0,7.82,6.91,14.16,15.42,14.16h19.16c8.51,0,15.42-6.34,15.42-14.16V207Z"/><path class="a" d="M275,118V107.18c0-4.15-6.91-7.51-15.42-7.51H240.42c-8.51,0-15.42,3.36-15.42,7.51V118Z"/><path class="a" d="M400,197V111.81c0-6.71-6.91-12.14-15.42-12.14H365.42c-8.51,0-15.42,5.43-15.42,12.14V197Z"/><path class="a" d="M350,300v87.26c0,6.85,6.91,12.41,15.42,12.41h19.16c8.51,0,15.42-5.56,15.42-12.41V300Z"/><rect class="a" x="209" y="148" width="80" height="28" rx="14"/><rect class="a" x="335" y="236" width="80" height="28" rx="14"/></svg>